<?xml version="1.0" standalone="no"?>
<!DOCTYPE svg PUBLIC "-//W3C//DTD SVG 20010904//EN"
 "http://www.w3.org/TR/2001/REC-SVG-20010904/DTD/svg10.dtd">
<svg version="1.0" xmlns="http://www.w3.org/2000/svg"
 width="288.000000pt" height="256.000000pt" viewBox="0 0 288.000000 256.000000"
 preserveAspectRatio="xMidYMid meet">

<g transform="translate(0.000000,256.000000) scale(0.100000,-0.100000)"
fill="#000000" stroke="none">
<path d="M0 1280 l0 -1280 1440 0 1440 0 0 1280 0 1280 -1440 0 -1440 0 0
-1280z m1230 866 c0 -184 -3 -337 -8 -340 -9 -5 -239 -58 -262 -60 -12 -1 -16
17 -20 84 -20 300 -173 312 -353 29 -51 -81 -79 -170 -85 -269 -6 -114 9 -149
79 -189 29 -16 82 -37 118 -47 151 -39 356 -158 472 -274 82 -82 142 -182 181
-302 30 -89 31 -100 30 -258 0 -167 -12 -248 -48 -336 -21 -51 -79 -111 -122
-125 -146 -48 -418 139 -594 411 -42 63 -113 178 -159 255 -46 77 -97 156
-114 176 -53 65 -107 180 -103 224 l3 40 71 -67 c53 -50 74 -78 83 -110 36
-122 156 -324 285 -479 64 -78 127 -115 180 -105 73 14 96 73 96 247 0 207
-28 286 -137 390 -83 79 -151 120 -294 178 -177 70 -279 121 -296 148 -42 64
39 200 360 601 173 217 254 273 393 273 l61 0 -5 73 -4 73 83 46 c46 25 90 46
97 46 9 1 12 -72 12 -333z m567 210 c74 -20 202 -91 291 -162 91 -71 182 -173
304 -339 48 -66 103 -136 121 -155 19 -19 55 -65 81 -101 41 -60 46 -72 46
-123 0 -34 -4 -56 -11 -56 -6 0 -33 12 -59 27 l-48 27 -5 63 c-6 74 -46 149
-151 280 -126 156 -246 243 -334 243 -51 0 -91 -33 -93 -77 -3 -63 3 -636 11
-1048 9 -473 12 -507 60 -533 22 -13 30 -12 73 8 98 46 263 241 393 462 45 77
49 89 54 165 l5 82 55 47 55 47 3 -26 c9 -75 -319 -664 -460 -825 -71 -82
-191 -184 -280 -238 -177 -107 -303 -88 -353 54 -26 72 -33 304 -37 1197 -3
883 -5 860 59 934 50 59 119 74 220 47z"/>
</g>
</svg>
